<?xml version="1.0" encoding="utf-8"?>
<!-- Generator: Adobe Illustrator 23.0.3, SVG Export Plug-In . SVG Version: 6.00 Build 0)  -->
<svg version="1.1" xmlns="http://www.w3.org/2000/svg" xmlns:xlink="http://www.w3.org/1999/xlink" x="0px" y="0px"
	 viewBox="0 0 78.9 175.6" style="enable-background:new 0 0 78.9 175.6;" xml:space="preserve">
<style type="text/css">
	.st0{fill:#FFFFFF;}
	.st1{fill:#D4DADE;}
	.st2{fill:#8AC238;}
	.st3{fill:#53B644;}
	.st4{fill:#4EB64C;}
	.st5{fill:#4AB74F;}
	.st6{fill:#009B46;}
</style>
<g id="Layer_1">
</g>
<g id="Layer_2">
	<polygon class="st0" points="0,49.9 70.8,49.9 57,175.6 13,175.6 	"/>
	<polygon class="st1" points="70.8,49.9 57,175.6 34.6,175.6 33.7,49.9 	"/>
	<path class="st2" d="M6.7,66.3c0,0,3.8-2.2,10.5-1.5c4.3,0.5,9.7,4,16.2,3.9c15-0.3,10.6-4.2,23.7-2.9c3.8,0.4,5.6,2.7,5.6,2.7
		l-9,95.4H16.3L6.7,66.3z"/>
	<path class="st3" d="M33.8,68.7c15-0.3,10.2-4.2,23.3-2.9c3.8,0.4,5.6,2.7,5.6,2.7l-9,95.4H34.5L33.8,68.7z"/>
	<polygon class="st2" points="37.8,49.6 29.9,49.6 29.9,13.5 77.1,0 78.9,6.9 38.4,18.8 	"/>
	<polygon class="st3" points="33.9,49.6 37.8,49.6 38.4,18.8 78.9,6.9 77.8,2.9 34.4,15.9 	"/>
	<circle class="st4" cx="24.8" cy="85.5" r="3.7"/>
	<circle class="st5" cx="27.7" cy="103.1" r="1.6"/>
	<circle class="st5" cx="19" cy="78.4" r="1.6"/>
	<circle class="st6" cx="49.3" cy="92.9" r="3.7"/>
	<circle class="st6" cx="42.2" cy="110.3" r="3.1"/>
</g>
</svg>
