<?xml version="1.0" encoding="utf-8"?>
<!-- Generator: Adobe Illustrator 23.0.3, SVG Export Plug-In . SVG Version: 6.00 Build 0)  -->
<svg version="1.1" id="Layer_1" xmlns="http://www.w3.org/2000/svg" xmlns:xlink="http://www.w3.org/1999/xlink" x="0px" y="0px"
	 viewBox="0 0 486.9 231.2" style="enable-background:new 0 0 486.9 231.2;" xml:space="preserve">
<style type="text/css">
	.st0{fill:#1976D2;}
</style>
<g>
	<g>
		<path class="st0" d="M478.2,86.9c-7.3,8.9-21,10.9-31,6c-0.4-0.4-0.8-0.4-1.2-0.8c5.2-7.7,8.5-17.7,8.1-26.6
			c0-8.1-4.4-20.2-14.9-18.1c-9.3,1.6-13.7,12.9-14.1,21c-0.4,7.7,1.6,15.3,5.2,22.2c-5.2,3.6-12.1,5.6-17.7,2.8
			c-8.1-4.4-1.6-17.7,0.4-24.2c1.2-4.4,6-21-4-19.4c-7.3,1.2-7.7,17.7-8.5,23c-1.2,6-4,10.5-8.1,15.3c-2,2-3.6,4-6.5,5.2
			c-2.4,0.8-7.7,1.6-9.3-1.2c-2.4-4,4.8-13.7,6.5-17.7c2.4-6,2.4-12.9-2-17.7c-3.2-3.6-6.9-5.2-10.5-5.2c4.4-6.9,8.1-14.1,10.5-22.2
			c2.4-7.3,5.2-17.3,1.6-24.6c-5.6-12.1-18.1,2-21.4,8.5c-7.7,14.5-10.9,31.5-14.9,47.6c-3.2,1.2-6.9,2-10.9,2.4
			c-6.9,0.4-2.8,12.9,3.2,12.5c1.2,0,2.4-0.4,4-0.4c-1.6,5.6-3.2,11.7-6.5,15.7c-2,2.8-4.8,4.8-8.5,4.8c-0.8,0-2-0.4-2.4-0.4l0,0
			c-2.4-6-2.4-15.7-2-23.8c0.4-7.3,1.2-14.5,2-21.8c2.8,0,5.6,0.4,8.5,0.4c6.9,0.8,6.9-12.5,1.2-12.9c-1.6,0-3.6-0.4-5.2-0.4
			c2.8-7.7,5.2-16.5,4.8-24.6c-0.4-7.7-7.7-13.7-10.9-4.8c-3.2,8.1-4.4,17.7-5.6,26.2c0,0.8-0.4,1.6-0.4,2c-2.4,0-4.8-0.4-7.3-0.4
			c-6.9-0.8-6.9,12.5-1.2,12.9c0.8,0,1.2,0,2,0c-3.6,4.8-7.7,9.3-12.9,12.5c-0.4-2-1.2-3.6-2-5.6c-3.2-6.5-8.5-11.7-16.1-10.9
			c-4,0.4-7.7,2.4-10.1,5.6c-0.8-1.6-2.4-2.8-4.4-1.6c-7.7,3.6-14.1,8.9-21.4,12.9c-1.2-6.5-4.8-12.5-11.7-15.7
			c-8.5-3.6-15.3,0-19,6c-1.2-2-3.6-3.6-5.6-1.6c-9.3,9.7-17.7,23.8-14.5,37.5c-1.6,2-3.6,3.6-6.9,4c-4,0.4-9.7-2-9.7-6.5
			c0-3.2,2-6.9,2.8-9.7c0.8-3.6,1.6-6.9,1.6-10.5c-0.4-6-2.8-13.7-9.3-15.3s-12.1,3.6-15.7,8.1c-1.2,1.2-2,2.8-2.8,4
			c-2-6.5-6-11.7-13.7-13.3c-8.9-2-16.5,2-21.8,8.1c-0.8-1.6-1.2-3.2-2.4-4.4c-3.6-6-9.3-10.1-16.5-10.5c-6.9-0.4-11.3,3.2-14.9,8.1
			c6.9-9.7,10.1-22.2,5.2-33.5C85,5.4,74.5-1.4,62.8,0.6c-11.3,2-17.7,13.3-17.3,24.2c0.4,11.7,7.7,21.4,17.3,27
			c0.4,0,0.4,0.4,0.8,0.4c-4,3.2-8.1,6-11.3,8.5c-2,1.2-3.6,2.8-5.6,4c-4-9.7-12.5-18.5-23.8-16.5C8.4,50.6,6.8,66.7,12.4,78
			c0.8,2,2,3.6,3.6,5.2c-4.8,2.4-9.3,4.8-14.1,6.9s0.4,14.5,5.2,12.1c6.5-2.8,12.5-6,18.5-9.3c6.5,5.2,13.3,9.3,20.2,12.1
			c12.5,5.6,28.2,7.3,40.3,0c10.5-6.5,16.5-19.4,13.7-31.5c-1.2-6.5-4.4-11.7-8.9-16.1c6-4.8,14.5-4,19.4,3.2c0.8,1.2,1.6,2.8,2,4
			c-0.4,1.2-0.8,2-1.6,3.2c-3.6,9.3-8.5,23.4-5.6,33.5c1.2,3.2,3.6,6.5,7.3,4c3.6-2.8,4.4-8.9,5.6-12.9c2-7.7,3.2-16.1,2.8-24.2
			c5.6-6.9,16.5-10.9,23.8-4c2,2,2.8,4.4,3.2,7.3c-1.2,2.4-2.4,5.2-3.2,7.7c-2.4,6.9-5.6,15.7-3.6,22.6s7.7,4,9.7-1.2
			c2.4-6,3.2-13.3,4-19.8c0-1.2,0.4-2.8,0.4-4.4c0.8-1.6,2-3.6,3.2-5.2c2.4-3.6,6.5-9.3,11.7-8.9c6.5,0.8,3.6,7.7,2.4,11.7
			c-2.8,8.9-4,21,4,27.4c7.7,6,17.3,3.2,22.2-4c10.5,13.3,30.2,7.7,39.1-5.2c2.8-4.4,5.2-10.5,6.5-16.5c2.4-0.8,4.4-2,6.5-3.2
			c-1.2,5.2-1.2,10.9,0,15.7c4,16.9,23.4,18.5,34.7,8.1c6-5.2,10.5-12.5,12.5-20.2c0.8,0,1.2,0,2-0.4c5.2-2.8,10.1-6.9,14.1-11.3
			c0,2.4-0.4,4.8-0.4,7.3c-0.4,9.7-0.4,20.6,3.6,29.4c6.5,12.9,21.8,7.3,27.8-3.2c4-7.7,6.5-16.5,8.5-25c0.4-0.4,0.8-0.4,0.8-0.8
			c0.4-0.8,1.2-1.2,2-2c2-1.2,4-2.4,6-4c2.8-1.6,6-2.4,9.3-2c3.2,0.4,3.2,0.4,2.8,2.8c-0.4,1.2-1.2,2.8-1.6,4
			c-1.2,2.8-2.8,5.2-3.6,8.1c-4,10.1-2,24.2,10.1,27.4c9.3,2.8,17.3-3.2,22.6-10.5c0.8,1.6,1.6,3.6,3.2,4.8
			c8.9,11.3,23.4,7.7,33.5,0c13.7,11.7,35.1,10.9,47.2-3.6C489.5,92.5,483,81.2,478.2,86.9z M83.4,50.2c-0.4,0.4-0.8,0.8-1.2,1.6
			l0,0C82.6,51,83,50.6,83.4,50.2z M54,26.8c0.8-6.5,5.6-12.1,12.1-13.3c6-1.2,14.5,0.8,16.1,7.7c2,9.3-3.6,17.3-10.9,24.6
			C62.9,41.7,52.8,36.5,54,26.8z M22.6,61.9c7.7-4,14.5,0.4,16.9,7.7c-5.2,3.2-10.5,6.5-16.1,9.7C18.1,74,13.7,66.7,22.6,61.9z
			 M71.4,96.9c-13.3,3.2-25.8-1.6-37.1-8.9c4.8-2.8,9.7-5.6,14.1-8.9c8.9-6,18.5-12.5,26.6-20.2c5.2,2.4,10.1,5.6,13.3,9.7
			C97.6,80.4,82.2,94.1,71.4,96.9z M279.4,57.8c5.2-1.2,8.9,3.2,10.1,7.7c-2.4,0.8-4.8,1.2-7.3,0.4
			C277.8,65.5,271.8,59.9,279.4,57.8z M222.6,58.2c5.2-2.8,10.5,1.6,12.1,6.5c-3.2,0.8-6.9,1.2-9.7-0.4
			C222.2,63.5,218.5,60.7,222.6,58.2z M212.1,91.3c-6.5-1.2-10.5-6-10.1-12.5c0.4-6,4.8-11.7,9.3-16.1c0.4,3.6,1.6,7.3,4.4,10.5
			c4.8,5.2,11.3,6,17.3,5.2C229.8,86.9,221.4,93.3,212.1,91.3z M262.5,87.7c-4.4-3.2-4-9.7-2.4-14.1c0.8-2.8,2.4-4.4,4-6.9
			c0.8-1.2,1.2-2.8,2-4c0.4,6.5,4,12.5,10.5,15.3c2.8,1.2,5.6,1.6,8.5,1.6C280.2,86.5,270.1,93.3,262.5,87.7z M332.2,13.9
			C332.2,14.3,331.8,14.3,332.2,13.9C331.8,13.9,331.8,13.9,332.2,13.9z M324.6,9.9L324.6,9.9L324.6,9.9z M325,94.9L325,94.9
			L325,94.9L325,94.9z M377,12.3C377.8,11.9,377.8,13.1,377,12.3L377,12.3z M374.6,9c0,0,0,0,0,0.4C374.2,9,374.2,9,374.6,9z
			 M374.2,14.3c-1.6,10.5-6.9,20.6-12.9,29.8c0.8-3.6,2-6.9,3.2-10.5C366.1,27.6,368.5,18.7,374.2,14.3z M412.1,62.7
			C412.5,61.9,413.3,62.7,412.1,62.7L412.1,62.7z M406,56.2C406,55.4,406,55.4,406,56.2L406,56.2z M435.5,67.1c0.8-2.4,3.2-6,6-6.5
			c3.6-0.4,3.2,2.4,2.8,5.2c-0.4,6-2.8,12.5-6,17.3c-0.4,0.4-0.4,0.8-0.8,0.8C434.7,78.8,433.4,72.8,435.5,67.1z"/>
		<path class="st0" d="M220.9,137.7c7.7,0,8.5-17.7,1.2-17.7C214.5,120.3,213.3,137.7,220.9,137.7z"/>
		<path class="st0" d="M412.1,45.7c7.7,0,8.5-17.7,1.2-17.7C405.2,28,404.4,45.7,412.1,45.7z"/>
		<path class="st0" d="M397.6,180c-2-1.6-5.2-1.6-6,1.6c-2.4,8.5-10.9,13.7-19.4,10.9c-9.3-3.2-10.9-13.3-3.6-19.8
			c3.6-3.6,1.6-12.9-4.4-12.1c-3.2,0.4-9.3,1.6-11.3-1.6c1.6-4.8,3.2-9.3,5.6-13.3c1.6-2.8,1.2-6.5-0.8-9.3c-1.6-2-4.4-3.2-6.5-0.8
			c-4.8,6.5-8.5,13.7-8.1,21.4c-3.2,9.7-6.5,19-13.3,26.2c-5.2,5.6-12.5,8.9-19.8,7.7c-1.2-0.4-2.4-0.4-3.6-0.8
			c0.8-0.4,1.2-0.8,2-1.6c7.3-5.6,12.1-14.1,14.9-22.6c2.4-8.1,4.4-18.1-0.4-25.4c-13.3-19.4-29.8,19.8-31.5,29.4
			c-0.8,4-1.2,8.9-0.4,12.9c-7.3,2-14.9,1.6-21.4-3.6c1.2-1.2,2-2.4,3.2-3.6c7.7-9.7,14.5-20.6,10.5-33.5c-0.8-2.4-2.4-4-4.4-2.4
			c-2,2-1.6,6.9-1.2,8.9c1.2,4-4.4,10.1-6.5,12.9c-2.4,2.8-4.8,6-7.3,8.5c-0.8-2.4-0.8-4.8,0-7.3c2-7.3,7.3-12.1,2.8-19.8
			c-9.7-17.3-24.2,10.5-28.2,17.3c-4,6.5-7.3,13.7-12.1,19c-2.4,2.4-6,5.2-9.7,4.4c-4.4-1.2-1.6-5.6-0.4-8.5
			c2.8-8.1,11.3-21,6.9-29.8c-2-4.4-6.9-5.2-9.7-1.2c-3.2,4.4-3.2,11.7-4.4,16.9c-1.6,7.7-3.6,14.5-10.1,19.8
			c-5.6,4.4-13.3,6.5-19.4,1.6c0,0,0,0-0.4,0c2-5.6,4-11.3,6-16.5c3.6-11.3,19-41.5-0.4-47.2c-8.1-2.4-14.5,2.4-19,8.9
			c-1.2-7.3-4.4-12.9-12.9-10.9c-6.5,1.6-11.3,8.1-15.3,13.3c-1.6,2-3.2,4.4-4.8,6.9c-1.2-6-3.2-11.7-7.7-15.7
			c-6.5-5.2-14.5-4-21.4-0.4c-14.9,8.1-24.6,25.8-27.8,41.9c-0.4,2.8-0.4,6.9,2.4,8.5c2.8,1.2,5.2-1.6,6-4
			c2.4-11.3,7.7-22.2,16.5-29.8c3.6-3.2,9.3-6.9,14.5-6.5c6.5,0.8,8.5,6.5,8.9,12.1c0.4,2.4,0.4,4.8,0.8,7.3c-0.8,1.2-1.6,2.8-2,4
			c-8.1,15.7-15.3,33.1-19,50.4c-1.2,5.6-6,29.4,6.5,26.2c7.3-2,10.9-12.5,12.9-18.5c4.4-11.3,6.9-23.8,8.5-35.9
			c1.2-7.3,2-14.9,2-22.6c2.4-4.4,5.2-8.9,8.5-13.3c2-2.8,12.1-16.9,14.9-8.1c1.2,4-1.2,10.5-2.4,14.5s-2.4,8.1-3.6,12.1
			c-1.2,3.2-2.4,6-3.6,9.3c-2,5.2,4.8,12.9,7.7,5.6c1.6-3.6,2.8-7.3,4-10.9c2-5.2,4-10.1,6-14.9c2-4.4,3.6-8.9,6.9-12.1
			c2-2.4,9.7-7.7,12.5-2.4c1.6,3.2-1.6,8.9-2.4,11.7c-3.2,10.1-6.9,20.2-10.1,30.2c-3.2,8.9-6.5,18.1-6,27.8
			c0.8,14.5,14.5,31.9,29.4,20.6c4.4-3.2,2-16.1-3.6-11.7c-9.7,7.3-17.7-4.8-16.9-13.7c0-1.6,0.4-2.8,0.8-4.4
			c10.1,8.1,22.2,4.8,30.6-3.2c1.6,2.8,4.4,5.2,9.3,6c8.5,2,15.3-3.6,19.8-10.1c6.5-8.9,11.3-19,17.3-28.2c0.8-1.2,1.6-2.4,2.4-3.2
			c-0.8,2.4-1.2,4.4-1.2,6.9c-0.4,5.2,0.4,10.5,2.8,15.7c-4.4,4-9.3,8.1-14.5,11.3c-3.6,2.4-2,15.3,2,12.5
			c6.5-4.4,12.9-9.3,18.5-14.9c8.5,9.7,21.8,12.1,33.5,8.5c0.8,1.2,1.6,2,2.8,3.2c6.5,6,16.5,7.3,24.6,4.4
			c14.9-4.8,21-18.5,25.8-32.7c2,1.6,4,2.8,6.5,3.2c-2.8,10.1,0,21.4,8.9,28.2c12.9,10.1,31,3.6,35.5-12.1
			C400.8,186.1,400.4,182,397.6,180z M111.7,214.3c0,0.4-0.4,0.4-0.4,0.8c0-2,0.4-4,0.4-4.4c2.4-11.7,6.9-23.8,11.3-34.7
			c-1.2,6-2.4,12.5-4,18.1C116.9,201,115.3,208.2,111.7,214.3z M300.8,171.9c2-7.3,6-16.9,11.7-22.2c4.4-4,4.4-0.4,3.2,3.6
			c-0.8,4.8-2.8,9.3-5.2,13.3c-2.4,4.4-6.5,8.1-10.9,10.9C300,176,300,174,300.8,171.9z"/>
	</g>
	<g>
		<g>
			<path class="st0" d="M212.9,226.1c54-10.9,108.9-7.3,162.5,3.6c3.2,0.8,2-7.3-0.4-7.7c-54-10.9-109.3-14.1-163.7-3.6
				C208.4,218.8,210.1,226.5,212.9,226.1L212.9,226.1z"/>
			<path class="st0" d="M375.8,230.8c-0.2,0-0.4,0-0.7-0.1c-33.7-6.8-64.5-10.2-94.1-10.2c-23.5,0-46.4,2.2-68,6.6
				c-0.2,0-0.3,0-0.4,0c-2.2,0-3.7-2.8-3.9-5.5c-0.2-2.3,0.7-3.9,2.3-4.2c22.1-4.3,45.4-6.4,69.3-6.4c29.8,0,61.7,3.4,94.8,10.1
				c2.2,0.4,3.3,4.2,3.1,6.7C378.1,230.6,376.3,230.8,375.8,230.8z M281.1,218.5c29.7,0,60.6,3.3,94.5,10.2c0.1,0,0.2,0,0.2,0
				c0.3,0,0.5-0.8,0.5-1.2c0.2-2.1-0.9-4.4-1.5-4.5c-33-6.6-64.8-10-94.4-10c-23.7,0-46.9,2.1-68.9,6.4c-0.5,0.1-0.7,1.1-0.6,2
				c0.1,2,1.1,3.7,1.9,3.7C234.4,220.7,257.4,218.5,281.1,218.5z"/>
		</g>
	</g>
</g>
</svg>
