<?xml version="1.0" encoding="utf-8"?>
<!-- Generator: Adobe Illustrator 25.0.0, SVG Export Plug-In . SVG Version: 6.00 Build 0)  -->
<svg version="1.1" id="Layer_1" xmlns="http://www.w3.org/2000/svg" xmlns:xlink="http://www.w3.org/1999/xlink" x="0px" y="0px"
	 viewBox="0 0 78.6 174.8" style="enable-background:new 0 0 78.6 174.8;" xml:space="preserve">
<style type="text/css">
	.st0{fill:#FFFFFF;}
	.st1{fill:#D4DADE;}
	.st2{fill:#B38671;}
	.st3{fill:#9C705F;}
</style>
<polygon class="st0" points="0,49.7 70.5,49.7 56.7,174.8 12.9,174.8 "/>
<polygon class="st1" points="70.5,49.7 56.7,174.8 34.5,174.8 33.5,49.7 "/>
<path class="st2" d="M6.7,66c0,0,3.8-2.2,10.5-1.5c4.3,0.4,9.7,4,16.1,3.9c15-0.3,10.6-4.2,23.6-2.9c3.8,0.4,5.5,2.6,5.5,2.6l-9,95
	H16.2L6.7,66z"/>
<path class="st3" d="M33.7,68.4c15-0.3,10.2-4.2,23.2-2.9c3.8,0.4,5.5,2.6,5.5,2.6l-9,95H34.3L33.7,68.4z"/>
<polygon class="st2" points="37.7,49.4 29.7,49.4 29.7,13.5 76.7,0 78.6,6.9 38.2,18.7 "/>
<polygon class="st3" points="33.8,49.4 37.7,49.4 38.2,18.7 78.6,6.9 77.5,2.9 34.3,15.9 "/>
<circle class="st3" cx="21.8" cy="87.2" r="3.7"/>
<circle class="st3" cx="27.6" cy="102.7" r="1.6"/>
<circle class="st3" cx="17.8" cy="78.5" r="1.6"/>
<circle class="st3" cx="23.5" cy="104" r="1.6"/>
<circle class="st2" cx="46.2" cy="91.4" r="3.7"/>
<circle class="st2" cx="42" cy="109.8" r="3.1"/>
<circle class="st2" cx="44.1" cy="114.8" r="3.1"/>
<circle class="st2" cx="52.7" cy="107" r="1.3"/>
<circle class="st2" cx="53.7" cy="109" r="1.3"/>
<circle class="st2" cx="44" cy="137.7" r="1.3"/>
<circle class="st2" cx="43.8" cy="140.1" r="1.3"/>
</svg>
