<?xml version="1.0" encoding="utf-8"?>
<!-- Generator: Adobe Illustrator 25.0.0, SVG Export Plug-In . SVG Version: 6.00 Build 0)  -->
<svg version="1.1" xmlns="http://www.w3.org/2000/svg" xmlns:xlink="http://www.w3.org/1999/xlink" x="0px" y="0px"
	 viewBox="0 0 89.2 72" style="enable-background:new 0 0 89.2 72;" xml:space="preserve">
<style type="text/css">
	.st0{fill:#4FC5E2;}
	.st1{fill:none;stroke:#F48CA2;stroke-linecap:round;stroke-linejoin:round;}
	.st2{fill:#A5D8BE;}
	.st3{fill:#F59DBA;}
</style>
<g id="Layer_1">
	<path class="st0" d="M88.9,40.7c-2.2,19-19.4,32.6-38.4,30.4c-19-2.2-32.6-19.4-30.4-38.4c2.2-19,19.4-32.6,38.4-30.4
		C77.6,4.5,91.2,21.7,88.9,40.7z"/>
	<g>
		
			<image style="overflow:visible;opacity:0.5;" width="75" height="180" xlink:href="4AF0CFDEA12F5D20.png"  transform="matrix(0.24 0 0 0.24 33.1193 26.8007)">
		</image>
		<g>
			<path class="st1" d="M37.2,30.9c0,0,6.9,5.5,8,14.7c1.1,9.2-2.9,15.3-6,18.8"/>
		</g>
	</g>
	<g>
		
			<image style="overflow:visible;opacity:0.5;" width="127" height="148" xlink:href="4AF0CFDEA12F5D21.png"  transform="matrix(0.24 0 0 0.24 18.9572 5.0361)">
		</image>
		<g>
			<path class="st1" d="M41.8,9.1c0,0,4.8,10.5-0.8,17.6c-5.6,7.1-13.4,9.3-17.9,7.8"/>
		</g>
	</g>
	<path class="st2" d="M46.3,51.4c-1.5,12.7-13,21.9-25.8,20.4C7.8,70.3-1.3,58.8,0.2,46c1.5-12.7,13-21.9,25.8-20.4
		C38.7,27.2,47.8,38.7,46.3,51.4z"/>
	<path class="st3" d="M44.5,19.5c-1.1,9.6-9.8,16.5-19.4,15.4c-9.6-1.1-16.5-9.8-15.4-19.4C10.8,5.9,19.5-1,29.1,0.1
		C38.7,1.2,45.6,9.9,44.5,19.5z"/>
</g>
<g id="Layer_2">
</g>
</svg>
